<svg width="26" height="26" viewBox="0 0 26 26" fill="none" xmlns="http://www.w3.org/2000/svg">
<path d="M0.816 8.344H2.592V7.768C2.592 6.744 2.704 5.784 2.928 4.888C3.184 3.96 3.536 3.16 3.984 2.488C4.464 1.816 5.024 1.288 5.664 0.903998C6.336 0.487998 7.104 0.279998 7.968 0.279998C9.472 0.279998 10.624 0.599998 11.424 1.24C12.256 1.88 12.672 2.632 12.672 3.496C12.672 4.104 12.464 4.616 12.048 5.032C11.632 5.448 11.136 5.656 10.56 5.656C9.664 5.656 9.024 5.384 8.64 4.84C8.288 4.296 8.112 3.624 8.112 2.824C8.112 2.28 7.968 1.864 7.68 1.576C7.392 1.288 7.072 1.144 6.72 1.144C6.432 1.144 6.176 1.24 5.952 1.432C5.728 1.624 5.616 1.944 5.616 2.392C5.616 2.904 5.712 3.304 5.904 3.592C6.128 3.848 6.368 4.136 6.624 4.456C6.912 4.776 7.152 5.176 7.344 5.656C7.568 6.136 7.68 6.84 7.68 7.768V8.344H10.08V8.872H7.68V18.76C7.68 19.336 7.68 19.912 7.68 20.488C7.712 21.032 7.792 21.576 7.92 22.12C8.08 22.632 8.304 23.128 8.592 23.608C8.88 24.056 9.28 24.456 9.792 24.808V25H0.48V24.808C1.024 24.456 1.424 24.056 1.68 23.608C1.968 23.128 2.176 22.632 2.304 22.12C2.464 21.576 2.544 21.032 2.544 20.488C2.576 19.912 2.592 19.336 2.592 18.76V8.872H0.816V8.344ZM12.4256 18.232C13.8976 20.344 15.3376 21.928 16.7456 22.984C18.1856 24.04 19.3696 24.568 20.2976 24.568C21.3216 24.568 21.8336 23.976 21.8336 22.792C21.8336 22.152 21.5776 21.608 21.0656 21.16C20.5536 20.68 19.9136 20.248 19.1456 19.864C18.3776 19.448 17.5456 19.048 16.6496 18.664C15.7856 18.248 14.9696 17.784 14.2016 17.272C13.4336 16.76 12.7936 16.168 12.2816 15.496C11.7696 14.824 11.5136 14.024 11.5136 13.096C11.5136 12.2 11.6896 11.432 12.0416 10.792C12.3936 10.152 12.8576 9.624 13.4336 9.208C14.0096 8.792 14.6656 8.488 15.4016 8.296C16.1696 8.104 16.9536 8.008 17.7536 8.008C18.9056 8.008 20.0896 8.136 21.3056 8.392C22.5216 8.648 23.4656 8.904 24.1376 9.16L23.0816 14.248H22.8896C22.3456 13.448 21.7376 12.728 21.0656 12.088C20.3936 11.416 19.7056 10.856 19.0016 10.408C18.2976 9.928 17.6256 9.56 16.9856 9.304C16.3456 9.048 15.7856 8.92 15.3056 8.92C14.4096 8.92 13.9616 9.352 13.9616 10.216C13.9616 10.76 14.2336 11.256 14.7776 11.704C15.3216 12.12 16.0096 12.536 16.8416 12.952C17.6736 13.368 18.5536 13.8 19.4816 14.248C20.4416 14.664 21.3376 15.144 22.1696 15.688C23.0016 16.232 23.6896 16.84 24.2336 17.512C24.7776 18.184 25.0496 18.984 25.0496 19.912C25.0496 20.776 24.8576 21.544 24.4736 22.216C24.0896 22.856 23.5776 23.4 22.9376 23.848C22.3296 24.296 21.6096 24.632 20.7776 24.856C19.9776 25.08 19.1616 25.192 18.3296 25.192C17.2096 25.192 16.0096 25.096 14.7296 24.904C13.4496 24.68 12.2816 24.424 11.2256 24.136L12.2336 18.232H12.4256Z" fill="#482BFF"/>
</svg>
