<svg width="49" height="48" viewBox="0 0 49 48" fill="none" xmlns="http://www.w3.org/2000/svg">
<g clip-path="url(#clip0_23_1598)">
<path d="M39.8833 39.3796C43.1051 36.1578 38.8313 26.6603 30.3374 18.1664C21.8435 9.67251 12.346 5.39865 9.12416 8.62047C5.90233 11.8423 10.1762 21.3398 18.6701 29.8337C27.164 38.3276 36.6615 42.6014 39.8833 39.3796Z" stroke="#482BFF" stroke-width="2.5" stroke-linecap="round" stroke-linejoin="round"/>
<path d="M30.3374 29.8336C38.8313 21.3397 43.1051 11.8422 39.8833 8.62038C36.6615 5.39856 27.164 9.67242 18.6701 18.1663C10.1762 26.6602 5.90233 36.1577 9.12416 39.3795C12.346 42.6014 21.8435 38.3275 30.3374 29.8336Z" stroke="#482BFF" stroke-width="2.5" stroke-linecap="round" stroke-linejoin="round"/>
<path d="M24.5 26.25C25.7426 26.25 26.75 25.2426 26.75 24C26.75 22.7574 25.7426 21.75 24.5 21.75C23.2574 21.75 22.25 22.7574 22.25 24C22.25 25.2426 23.2574 26.25 24.5 26.25Z" fill="#482BFF"/>
</g>
<defs>
<clipPath id="clip0_23_1598">
<rect width="48" height="48" fill="white" transform="translate(0.5)"/>
</clipPath>
</defs>
</svg>
